<?xml version="1.0" encoding="utf-8"?>
<!-- Generator: Adobe Illustrator 25.1.0, SVG Export Plug-In . SVG Version: 6.00 Build 0)  -->
<svg version="1.1" id="Layer_1" xmlns="http://www.w3.org/2000/svg" xmlns:xlink="http://www.w3.org/1999/xlink" x="0px" y="0px"
	 viewBox="0 0 625 625" style="enable-background:new 0 0 625 625;" xml:space="preserve">
<style type="text/css">
	.st0{fill:#2A94F4;}
</style>
<g id="Layer_1_1_">
	<path class="st0" d="M513.3,111.7C402.6,0.8,222.9,0.6,112,111.4c-0.1,0.1-0.2,0.2-0.3,0.3C8.2,215.2,0.7,380.6,92.9,492.6
		c-12.7,26.1-27.7,43.4-44.7,51.8c-13.1,6.5-18.5,22.4-12,35.5c3.8,7.8,11.2,13.1,19.7,14.5c6.6,1,13.4,1.5,20.1,1.5
		c34.9,0,71.5-12,102.1-33.1c138.2,74.2,310.5,22.3,384.7-115.9C622,336.5,601.9,200.3,513.3,111.7L513.3,111.7z M490.6,490.6
		c-81.1,81-206.7,97.1-305.6,39.1c-2.5-1.4-5.2-2.2-8.1-2.3c-3.6,0-7,1.2-9.9,3.3c-36.4,28.2-73.1,32.4-89.1,32.7
		c19.2-14.3,35.2-36.4,48.7-67.2c2.5-5.7,1.4-12.4-2.7-17.1c-88-99.5-83.4-251,10.6-345c98.4-98.4,257.8-98.4,356.2,0
		C588.8,232.6,588.8,392.5,490.6,490.6L490.6,490.6z"/>
</g>
</svg>
